HIERARCHY
ROOT joint_Root
{
	OFFSET 0.0 0.0 0.0
	CHANNELS 6 Xposition Yposition Zposition Zrotation Xrotation Yrotation 
	JOINT Hips
	{
		OFFSET 4.5925 91.4895 -427.239
		CHANNELS 6 Xposition Yposition Zposition Zrotation Xrotation Yrotation 
		JOINT Spine
		{
			OFFSET 15.7357 0.0 0.0
			CHANNELS 6 Xposition Yposition Zposition Zrotation Xrotation Yrotation 
			JOINT Chest
			{
				OFFSET 8.98455 -0.406207 0.0
				CHANNELS 6 Xposition Yposition Zposition Zrotation Xrotation Yrotation 
				JOINT Neck
				{
					OFFSET 16.3773 0.0 0.0
					CHANNELS 6 Xposition Yposition Zposition Zrotation Xrotation Yrotation 
					JOINT Head
					{
						OFFSET 6.45672 0.0 0.0
						CHANNELS 6 Xposition Yposition Zposition Zrotation Xrotation Yrotation 
						End Site
						{
							OFFSET 0.0 0.0 0.0
						}
					}
				}
				JOINT Shoulder_L
				{
					OFFSET 12.9942 -0.242716 4.98039
					CHANNELS 6 Xposition Yposition Zposition Zrotation Xrotation Yrotation 
					JOINT UpperArm_L
					{
						OFFSET 5.34809 0.0 0.0
						CHANNELS 6 Xposition Yposition Zposition Zrotation Xrotation Yrotation 
						JOINT LowerArm_L
						{
							OFFSET 24.3286 1.87007e-05 0.0
							CHANNELS 6 Xposition Yposition Zposition Zrotation Xrotation Yrotation 
							JOINT Hand_L
							{
								OFFSET 22.2916 0.0 0.0
								CHANNELS 6 Xposition Yposition Zposition Zrotation Xrotation Yrotation 
								End Site
								{
									OFFSET 0.0 0.0 0.0
								}
							}
						}
					}
				}
				JOINT Shoulder_R
				{
					OFFSET 12.9945 -0.242716 -4.98039
					CHANNELS 6 Xposition Yposition Zposition Zrotation Xrotation Yrotation 
					JOINT UpperArm_R
					{
						OFFSET -5.34813 0.0 0.0
						CHANNELS 6 Xposition Yposition Zposition Zrotation Xrotation Yrotation 
						JOINT LowerArm_R
						{
							OFFSET -24.3289 0.000322201 0.0
							CHANNELS 6 Xposition Yposition Zposition Zrotation Xrotation Yrotation 
							JOINT Hand_R
							{
								OFFSET -22.2915 -0.000108084 0.0
								CHANNELS 6 Xposition Yposition Zposition Zrotation Xrotation Yrotation 
								End Site
								{
									OFFSET 0.0 0.0 0.0
								}
							}
						}
					}
				}
			}
		}
		JOINT UpperLeg_L
		{
			OFFSET -2.19248 -6.46944 0.0
			CHANNELS 6 Xposition Yposition Zposition Zrotation Xrotation Yrotation 
			JOINT LowerLeg_L
			{
				OFFSET 39.0811 0.0 -1.23785e-05
				CHANNELS 6 Xposition Yposition Zposition Zrotation Xrotation Yrotation 
				JOINT Foot_L
				{
					OFFSET 40.9854 0.0 -1.26872e-05
					CHANNELS 6 Xposition Yposition Zposition Zrotation Xrotation Yrotation 
					JOINT Toes_L
					{
						OFFSET 11.7543 0.0 0.0
						CHANNELS 6 Xposition Yposition Zposition Zrotation Xrotation Yrotation 
						End Site
						{
							OFFSET 0.0 0.0 0.0
						}
					}
				}
			}
		}
		JOINT UpperLeg_R
		{
			OFFSET -2.19251 6.46944 0.0
			CHANNELS 6 Xposition Yposition Zposition Zrotation Xrotation Yrotation 
			JOINT LowerLeg_R
			{
				OFFSET -39.0811 -0.00228153 -0.0401928
				CHANNELS 6 Xposition Yposition Zposition Zrotation Xrotation Yrotation 
				JOINT Foot_R
				{
					OFFSET -40.9854 0.0 0.0
					CHANNELS 6 Xposition Yposition Zposition Zrotation Xrotation Yrotation 
					JOINT Toes_R
					{
						OFFSET -11.7543 0.0 0.0
						CHANNELS 6 Xposition Yposition Zposition Zrotation Xrotation Yrotation 
						End Site
						{
							OFFSET 0.0 0.0 0.0
						}
					}
				}
			}
		}
	}
}
MOTION
Frames:	4
Frame Time:	0.0333333
0.000000 0.000000 0.000000 0.000000 0.000000 -0.000000 138.589000 86.262200 -78.275800 92.025800 3.853840 -3.240190 15.735700 0.000005 -0.000001 98.923900 83.352400 -100.560000 8.984550 -0.406207 -0.000000 5.402980 2.091400 -3.366690 16.377300 -0.000001 -0.000001 -0.118796 -4.966440 1.753550 6.456720 -0.000001 -0.000000 -3.410480 -7.392530 3.421120 12.994200 -0.242716 4.980390 -92.392400 6.291130 -69.134400 5.348090 -0.000007 -0.000001 -63.421000 34.324400 -15.379200 24.328600 0.000019 0.000005 14.238300 -0.627840 -92.461000 22.291600 -0.000001 0.000005 8.078570 5.599420 -11.309700 12.994500 -0.242716 -4.980390 87.168900 12.106400 -76.731300 -5.348130 -0.000001 -0.000004 -62.434100 31.265800 6.137760 -24.328900 0.000322 -0.000009 -11.843100 -8.156980 -55.898900 -22.291500 -0.000108 -0.000004 12.247000 5.604430 -11.593300 -2.192480 -6.469440 -0.000000 176.461000 -0.857951 -32.190700 39.081100 -0.000007 -0.000012 -0.434935 0.372580 49.416500 40.985400 -0.000006 -0.000013 1.305720 -3.669790 -70.720100 11.754300 -0.000000 0.000003 -0.000030 -0.000363 -16.591700 -2.192510 6.469440 -0.000001 171.264000 11.039900 177.934000 -39.081100 -0.002282 -0.040193 0.237529 -0.145991 58.075300 -40.985400 0.000008 0.000006 4.015590 7.036290 -35.321100 -11.754300 -0.000006 -0.000006 -0.071040 -0.366093 -31.736000
0.000000 0.000000 0.000000 0.000000 0.000000 -0.000000 138.935000 87.329400 -74.413200 92.244000 6.555570 -3.389770 15.735700 0.000005 -0.000001 86.693700 83.570300 -88.045900 8.984550 -0.406207 -0.000000 5.065430 -0.708287 -2.669990 16.377300 -0.000001 -0.000001 0.226721 -5.002710 1.034860 6.456720 -0.000001 -0.000000 -3.186850 -5.220900 2.436650 12.994200 -0.242716 4.980390 -91.114600 3.153870 -70.527600 5.348090 -0.000007 -0.000001 -61.474400 38.022400 -28.964300 24.328600 0.000019 0.000005 14.245700 -2.223670 -98.708600 22.291600 -0.000001 0.000005 7.646610 5.561210 -9.240380 12.994500 -0.242716 -4.980390 87.358700 9.624050 -74.569500 -5.348130 -0.000001 -0.000004 -62.545800 35.261600 15.193700 -24.328900 0.000322 -0.000009 -16.057200 -9.381030 -60.480300 -22.291500 -0.000108 -0.000004 9.623150 5.604270 -11.594900 -2.192480 -6.469440 -0.000000 176.243000 -0.606273 -27.577400 39.081100 -0.000007 -0.000012 -0.345821 0.333150 46.069900 40.985400 -0.000006 -0.000013 2.146640 -1.369310 -72.010300 11.754300 -0.000000 0.000003 -0.000017 -0.000220 -16.586200 -2.192510 6.469440 -0.000001 172.872000 10.453100 169.208000 -39.081100 -0.002282 -0.040193 0.279120 -0.110071 68.256700 -40.985400 0.000008 0.000006 2.680210 1.250850 -30.257700 -11.754300 -0.000006 -0.000006 -0.027039 -0.203555 -24.905600
0.000000 0.000000 0.000000 0.000000 0.000000 -0.000000 139.145000 89.038100 -70.103900 91.926800 8.232220 -2.063890 15.735700 0.000005 -0.000001 71.760500 82.928600 -72.696800 8.984550 -0.406207 -0.000000 5.643880 -4.398440 -1.654330 16.377300 -0.000001 -0.000001 0.772576 -3.919010 0.415837 6.456720 -0.000001 -0.000000 -2.969540 -2.391920 1.071550 12.994200 -0.242716 4.980390 -90.083000 0.237324 -70.746000 5.348090 -0.000007 -0.000001 -56.803100 37.847700 -40.124700 24.328600 0.000019 0.000005 8.754210 -2.559730 -106.206000 22.291600 -0.000001 0.000005 7.067140 5.535720 -8.044280 12.994500 -0.242716 -4.980390 88.082200 6.604720 -73.766300 -5.348130 -0.000001 -0.000004 -63.018900 39.096500 21.742500 -24.328900 0.000322 -0.000009 -14.225000 -6.456600 -66.079300 -22.291500 -0.000108 -0.000004 7.707910 5.597870 -11.211700 -2.192480 -6.469440 -0.000000 176.981000 -2.058610 -19.508200 39.081100 -0.000007 -0.000012 -0.219326 0.267932 39.303900 40.985400 -0.000006 -0.000013 2.795340 1.604450 -72.051700 11.754300 -0.000000 0.000003 -0.000004 -0.000064 -16.580000 -2.192510 6.469440 -0.000001 174.377000 9.748690 163.887000 -39.081100 -0.002282 -0.040193 0.214695 -0.059457 74.309000 -40.985400 0.000008 0.000006 4.705240 1.693130 -39.350300 -11.754300 -0.000006 -0.000006 -0.025365 -0.195373 -24.567000
0.000000 0.000000 0.000000 0.000000 0.000000 -0.000000 139.115000 90.642600 -65.831500 90.311100 8.165490 -1.215400 15.735700 0.000005 -0.000001 65.442200 82.444800 -65.506100 8.984550 -0.406207 -0.000000 6.001780 -6.262290 0.200899 16.377300 -0.000001 -0.000001 1.184460 -3.505400 0.140954 6.456720 -0.000001 -0.000000 -2.779370 -0.191872 -0.479354 12.994200 -0.242716 4.980390 -89.430800 -1.666060 -71.130100 5.348090 -0.000007 -0.000001 -52.155200 35.544300 -48.480300 24.328600 0.000019 0.000005 5.914450 -2.472900 -112.621000 22.291600 -0.000001 0.000005 6.098610 5.519450 -7.334650 12.994500 -0.242716 -4.980390 88.875400 3.704410 -73.096700 -5.348130 -0.000001 -0.000004 -63.391000 41.346900 27.305600 -24.328900 0.000322 -0.000009 -14.860700 -4.879230 -72.224600 -22.291500 -0.000108 -0.000004 6.983730 5.589320 -10.719900 -2.192480 -6.469440 -0.000000 179.396000 -3.919630 -11.581800 39.081100 -0.000007 -0.000012 -0.161251 0.265832 31.240900 40.985400 -0.000006 -0.000013 2.570570 3.484870 -71.422200 11.754300 -0.000000 0.000003 0.000053 0.000897 -16.541000 -2.192510 6.469440 -0.000001 176.934000 8.033740 158.327000 -39.081100 -0.002282 -0.040193 0.170774 -0.042675 75.727800 -40.985400 0.000008 0.000006 3.529320 0.755154 -44.128200 -11.754300 -0.000006 -0.000006 -0.023624 -0.186591 -24.204000
